<?xml version="1.0" encoding="UTF-8" standalone="no"?>
<!-- Created with Inkscape (http://www.inkscape.org/) -->

<svg
   version="1.1"
   id="svg1"
   width="254.19603"
   height="99.13855"
   viewBox="0 0 254.19602 99.13855"
   xml:space="preserve"
   xmlns:xlink="http://www.w3.org/1999/xlink"
   xmlns="http://www.w3.org/2000/svg"
   xmlns:svg="http://www.w3.org/2000/svg"><defs
     id="defs1"><linearGradient
       id="linearGradient4454"><stop
         style="stop-color:#7b7b7d;stop-opacity:1;"
         offset="0"
         id="stop4456" /><stop
         style="stop-color:#67686a;stop-opacity:1;"
         offset="1"
         id="stop4455" /></linearGradient><linearGradient
       id="linearGradient4452"><stop
         style="stop-color:#7b7b7d;stop-opacity:1;"
         offset="0"
         id="stop4454" /><stop
         style="stop-color:#595a5d;stop-opacity:1;"
         offset="1"
         id="stop4453" /></linearGradient><linearGradient
       id="linearGradient4450"><stop
         style="stop-color:#7b7b7d;stop-opacity:1;"
         offset="0"
         id="stop4452" /><stop
         style="stop-color:#67686a;stop-opacity:1;"
         offset="1"
         id="stop4451" /></linearGradient><linearGradient
       id="linearGradient4448"><stop
         style="stop-color:#ec6668;stop-opacity:1;"
         offset="0"
         id="stop4450" /><stop
         style="stop-color:#c13344;stop-opacity:1;"
         offset="1"
         id="stop4449" /></linearGradient><linearGradient
       id="linearGradient4446"><stop
         style="stop-color:#dc772a;stop-opacity:0.99607843;"
         offset="0.07042254"
         id="stop4448" /><stop
         style="stop-color:#8b3e1f;stop-opacity:1;"
         offset="0.7323944"
         id="stop4447" /></linearGradient><linearGradient
       id="linearGradient4444"><stop
         style="stop-color:#fac73e;stop-opacity:1;"
         offset="0.15023474"
         id="stop4446" /><stop
         style="stop-color:#8e6f03;stop-opacity:1;"
         offset="0.83802819"
         id="stop4445" /></linearGradient><linearGradient
       id="linearGradient4442"><stop
         style="stop-color:#8e8bbf;stop-opacity:1;"
         offset="0"
         id="stop4444" /><stop
         style="stop-color:#3b3860;stop-opacity:1;"
         offset="1"
         id="stop4443" /></linearGradient><linearGradient
       id="linearGradient4440"><stop
         style="stop-color:#8cc75a;stop-opacity:1;"
         offset="0.03755869"
         id="stop4442" /><stop
         style="stop-color:#386b1e;stop-opacity:1;"
         offset="0.69014084"
         id="stop4441" /></linearGradient><linearGradient
       id="linearGradient4438"><stop
         style="stop-color:#74bbe7;stop-opacity:1;"
         offset="0"
         id="stop4440" /><stop
         style="stop-color:#1c5777;stop-opacity:1;"
         offset="1"
         id="stop4439" /></linearGradient><linearGradient
       id="linearGradient3340"><stop
         style="stop-color:#747476;stop-opacity:1;"
         offset="0"
         id="stop4438" /><stop
         style="stop-color:#656668;stop-opacity:1;"
         offset="1"
         id="stop3340" /></linearGradient><style
       id="style1">
      .cls-1 {
        fill: #1875ba;
      }

      .cls-2 {
        fill: #243c8c;
      }

      .cls-3 {
        fill: #29295e;
      }
    </style><radialGradient
       xlink:href="#linearGradient3340"
       id="radialGradient3341"
       cx="-527.00806"
       cy="1357.9291"
       fx="-527.00806"
       fy="1357.9291"
       r="11.516485"
       gradientTransform="matrix(2.1058505,0,0,2.3053575,582.7921,-1773.5552)"
       gradientUnits="userSpaceOnUse" /><radialGradient
       xlink:href="#linearGradient4438"
       id="radialGradient4440"
       cx="-565.48517"
       cy="1389.2335"
       fx="-565.48517"
       fy="1389.2335"
       r="26.018082"
       gradientTransform="matrix(2.8587466e-7,2.1061229,-2.3686074,0,2725.6731,2579.3681)"
       gradientUnits="userSpaceOnUse" /><radialGradient
       xlink:href="#linearGradient4440"
       id="radialGradient4442"
       cx="-598.65088"
       cy="1361.4635"
       fx="-598.65088"
       fy="1361.4635"
       r="11.49099"
       gradientTransform="matrix(3.0970442,-3.0970442,2.1649899,2.1649899,-1694.615,-3443.4514)"
       gradientUnits="userSpaceOnUse" /><radialGradient
       xlink:href="#linearGradient4442"
       id="radialGradient4444"
       cx="-523.17932"
       cy="1348.1754"
       fx="-523.17932"
       fy="1348.1754"
       r="5.7070551"
       gradientTransform="matrix(3.1080331,-1.6022056,0.812383,1.5758984,6.7813148,-1615.3435)"
       gradientUnits="userSpaceOnUse" /><radialGradient
       xlink:href="#linearGradient4444"
       id="radialGradient4446"
       cx="-501.71664"
       cy="1357.5542"
       fx="-501.71664"
       fy="1357.5542"
       r="9.1917429"
       gradientTransform="matrix(2.6296457,-4.415881,3.2078732,1.9102801,-3533.7762,-3451.813)"
       gradientUnits="userSpaceOnUse" /><radialGradient
       xlink:href="#linearGradient4446"
       id="radialGradient4448"
       cx="-695.88678"
       cy="1372.1294"
       fx="-695.88678"
       fy="1372.1294"
       r="7.8662686"
       gradientTransform="matrix(4.3602303,-4.3602304,2.3188724,2.3188724,-843.02952,-4844.9256)"
       gradientUnits="userSpaceOnUse" /><radialGradient
       xlink:href="#linearGradient4448"
       id="radialGradient4450"
       cx="-521.53571"
       cy="1434.6921"
       fx="-521.53571"
       fy="1434.6921"
       r="7.126852"
       gradientTransform="matrix(1.8205845,0,0,1.8784351,426.60538,-1260.9902)"
       gradientUnits="userSpaceOnUse" /><radialGradient
       xlink:href="#linearGradient4450"
       id="radialGradient4452"
       cx="-586.12244"
       cy="1380.745"
       fx="-586.12244"
       fy="1380.745"
       r="5.3023849"
       gradientTransform="matrix(0,-3.0791452,1.5706814,0,-2754.6653,-425.24392)"
       gradientUnits="userSpaceOnUse" /><radialGradient
       xlink:href="#linearGradient4452"
       id="radialGradient4454"
       cx="-514.6933"
       cy="1358.8141"
       fx="-514.6933"
       fy="1358.8141"
       r="7.8982949"
       gradientTransform="matrix(-3.4877625,-2.0136606,1.3752907,-2.3820732,-4179.4238,3558.882)"
       gradientUnits="userSpaceOnUse" /><radialGradient
       xlink:href="#linearGradient4454"
       id="radialGradient4456"
       cx="-530.25775"
       cy="1427.0352"
       fx="-530.25775"
       fy="1427.0352"
       r="6.9272099"
       gradientTransform="matrix(1.8948456,1.0939896,-1.0242477,1.7740491,1935.7972,-524.93877)"
       gradientUnits="userSpaceOnUse" /></defs><g
     id="g1"
     transform="translate(737.54862,-1328.3461)"><g
       id="g4456"
       transform="translate(-0.55417709,-17.179475)"><path
         style="opacity:1;fill:#67686a;fill-opacity:1;stroke:none;stroke-width:0.7;stroke-linecap:round;stroke-linejoin:round;stroke-dasharray:none;stroke-opacity:1"
         d="m -736.99452,1425.4793 h 8.91486 l 17.83813,-42.8794 9.16671,21.2069 -11.35033,-0.011 -2.80516,7.572 16.77324,-0.023 6.33075,14.1341 h 9.30672 l -22.23817,-51.6278 h -9.60062 z"
         id="path3327" /><path
         id="path3328"
         style="opacity:1;fill:url(#radialGradient4448);fill-opacity:1;stroke-width:0.719307;stroke-linecap:round;stroke-linejoin:round"
         d="m -684.27244,1375.0082 c -0.0696,5.8948 -3.02537,8.806 -7.76156,8.6279 -4.90553,-0.1844 -7.95679,-2.6358 -7.9703,-8.0045 -0.0112,-4.4207 2.6639,-8.0045 7.76157,-8.2123 4.60676,-0.1878 8.02479,2.9721 7.97029,7.5889 z" /><path
         style="opacity:1;fill:#67686a;fill-opacity:1;stroke:none;stroke-width:0.7;stroke-linecap:round;stroke-linejoin:round;stroke-dasharray:none;stroke-opacity:1"
         d="m -681.42941,1373.5197 h 49.8759 l 30.02643,38.3319 -0.008,-30.3586 c 2.94732,0.6781 5.83883,0.8539 8.6556,0.357 l 0.006,43.5332 h -8.86455 l -29.81611,-38.9302 v 39.0189 h -8.90147 v -44.1263 h -20.92016 v 44.1207 l -9.42101,0.013 v -44.1333 h -11.6377 c 1.48484,-2.6896 1.49389,-5.2762 1.00444,-7.8281 z"
         id="path3329" /><path
         id="path3332"
         style="opacity:1;fill:url(#radialGradient4442);fill-opacity:1;stroke-width:1.05076;stroke-linecap:round;stroke-linejoin:round"
         d="m -584.93571,1366.8336 c -0.10167,8.6111 -4.41944,12.8637 -11.33804,12.6035 -7.16596,-0.2693 -11.62322,-3.8504 -11.64295,-11.6929 -0.0164,-6.4577 3.8914,-11.6929 11.33804,-11.9964 6.72952,-0.2744 11.72256,4.3416 11.64295,11.0858 z" /><path
         id="path3332-3"
         style="opacity:1;fill:url(#radialGradient4444);fill-opacity:1;stroke-width:0.517904;stroke-linecap:round;stroke-linejoin:round"
         d="m -516.40852,1350.9089 c -0.0501,4.2443 -1.64142,6.2538 -5.77885,6.1255 -3.5328,-0.1095 -5.625,-1.9324 -5.63473,-5.7978 -0.008,-3.183 2.22974,-5.5556 5.90008,-5.7051 3.31687,-0.1353 5.55274,2.0533 5.5135,5.3774 z" /><path
         id="path3332-9"
         style="opacity:1;fill:url(#radialGradient4450);fill-opacity:1;stroke-width:0.651694;stroke-linecap:round;stroke-linejoin:round"
         d="m -516.87653,1436.8402 c -0.0631,5.3407 -2.74099,7.9783 -7.03199,7.8169 -4.44442,-0.167 -7.20886,-2.3881 -7.2211,-7.2521 -0.0102,-4.0051 2.41349,-7.2521 7.03199,-7.4403 4.17373,-0.1702 7.27047,2.6927 7.2211,6.8755 z" /><path
         id="path3332-94"
         style="opacity:1;fill:url(#radialGradient4446);fill-opacity:1;stroke-width:0.862638;stroke-linecap:round;stroke-linejoin:round"
         d="m -495.78906,1350.2188 c -3.10159,0.1263 -5.40493,1.1057 -6.91992,2.7324 0.31512,0.079 0.6494,0.1761 1.0039,0.2949 4.14389,1.3883 4.97072,2.6187 4.9707,5.4863 -4e-5,2.8675 -2.30085,4.9703 -5.11914,5.1914 -0.83286,0.065 -1.5515,0.055 -2.17187,-0.02 1.46738,3.2686 4.68325,4.819 8.92773,4.9785 5.67994,0.2136 9.39068,-3.7186 9.45508,-9.1719 0.0654,-5.5367 -4.62177,-9.7175 -10.14648,-9.4921 z" /><path
         style="opacity:1;fill:url(#radialGradient4452);fill-opacity:1;stroke:none;stroke-width:0.7;stroke-linecap:round;stroke-linejoin:round;stroke-dasharray:none;stroke-opacity:1"
         d="m -575.17999,1379.3789 -3.9921,3.6246 -6.61267,-3.7961 c 1.54201,-1.7404 2.24585,-3.3013 2.88998,-4.8493 z"
         id="path3334" /><path
         style="opacity:1;fill:url(#radialGradient4456);fill-opacity:1;stroke:none;stroke-width:0.7;stroke-linecap:round;stroke-linejoin:round;stroke-dasharray:none;stroke-opacity:1"
         d="m -529.93138,1428.4595 -11.29135,-9.6981 -2.56307,2.7708 10.80645,10.2004 c 0.69421,-1.6911 1.66528,-2.6377 3.04797,-3.2731 z"
         id="path3335" /><path
         style="opacity:1;fill:#67686a;fill-opacity:1;stroke:none;stroke-width:0.7;stroke-linecap:round;stroke-linejoin:round;stroke-dasharray:none;stroke-opacity:1"
         d="m -483.11691,1375.1359 v 8.2781 c -31.31817,-9.4466 -34.2348,9.4314 -33.0986,17.0683 1.1362,7.6369 3.68791,20.5358 24.06128,15.9461 v -15.2582 h 9.35571 v 21.332 c -18.43438,6.3902 -41.97069,3.992 -43.37423,-22.1647 -1.40354,-26.1567 21.53013,-31.5301 43.05584,-25.2016 z"
         id="path3336" /><path
         style="opacity:1;fill:url(#radialGradient4454);fill-opacity:1;stroke:none;stroke-width:0.7;stroke-linecap:round;stroke-linejoin:round;stroke-dasharray:none;stroke-opacity:1"
         d="m -513.31057,1351.4688 13.68647,4.8637 c 1.41186,2.1242 0.14563,4.7049 -1.4205,5.2901 l -13.76415,-3.9676 c 0.69627,-1.7695 1.17109,-3.7706 1.49818,-6.1862 z"
         id="path3337" /><path
         id="path3332-5"
         style="opacity:1;fill:url(#radialGradient4440);fill-opacity:0.988235;stroke-width:2.36083;stroke-linecap:round;stroke-linejoin:round"
         d="m -531.97439,1398.7061 c 0.33594,20.773 -9.80221,28.7899 -25.86599,28.3173 -17.63081,-0.5187 -25.95532,-8.2823 -26.1592,-26.2713 -0.17263,-15.2317 7.42838,-27.1285 25.47413,-26.9534 16.80669,0.1631 26.30576,9.7392 26.55106,24.9074 z" /><path
         style="opacity:1;fill:url(#radialGradient3341);fill-opacity:1;stroke:none;stroke-width:0.7;stroke-linecap:round;stroke-linejoin:round;stroke-dasharray:none;stroke-opacity:1"
         d="m -529.41184,1355.5852 c 0.65156,2.3401 2.11698,2.9045 3.77533,3.048 -6.62686,7.3893 -12.76556,15.6288 -20.05427,22.1671 -1.75567,-0.1941 -2.50625,-1.106 -2.9787,-2.2167 5.81624,-7.8479 12.89532,-15.3325 19.25764,-22.9984 z"
         id="path3333" /></g></g></svg>
